# xmcd
#
# Track frame offsets:
#	183
#	14608
#	31098
#	45955
#	57925
#	77493
#	93133
#	112558
#	129118
#	148435
#	164048
#	180103
#	197013
#
# Disc length: 2886 seconds
#
# Revision: 0
# Processed by: cddbd v1.5.2PL0 Copyright (c) Steve Scherf et al.
# Submitted via: EZCDAudioConverter 7.1.5.1
#
DISCID=950b440d
DTITLE=Kenny Rogers - 25 Greatest Hits
DYEAR=1987
DGENRE=Country
TTITLE0=Daytime Friends
TTITLE1=You Decorated My Life
TTITLE2=Till I Can Make It On My Own
TTITLE3=Reuben James
TTITLE4=Coward Of The County
TTITLE5=I Dont Need You
TTITLE6=Somethings Burning
TTITLE7=Love Will Turn You Around
TTITLE8=Abraham Martin And John/Precious Memories
TTITLE9=Love Is What We Make It
TTITLE10=Green Green Grass Of Home
TTITLE11=Desperado
TTITLE12=Sweet Music Man
EXTD=
EXTT0=
EXTT1=
EXTT2=
EXTT3=
EXTT4=
EXTT5=
EXTT6=
EXTT7=
EXTT8=
EXTT9=
EXTT10=
EXTT11=
EXTT12=
PLAYORDER=
